<svg width="181" height="78" viewBox="0 0 181 78" fill="none" xmlns="http://www.w3.org/2000/svg">
<path d="M18.7372 48.6364C15.0099 48.6364 11.7978 47.9242 9.10085 46.5C6.41903 45.0606 4.35085 43 2.89631 40.3182C1.45691 37.6212 0.737216 34.3939 0.737216 30.6364C0.737216 27.0303 1.46449 23.8788 2.91903 21.1818C4.37358 18.4848 6.42661 16.3864 9.07812 14.8864C11.7296 13.3864 14.8584 12.6364 18.4645 12.6364C21.1009 12.6364 23.4872 13.0455 25.6236 13.8636C27.7599 14.6818 29.5857 15.8712 31.1009 17.4318C32.616 18.9773 33.7827 20.8561 34.6009 23.0682C35.419 25.2803 35.8281 27.7727 35.8281 30.5455V33.4545H4.64631V26.5455H24.2827C24.2675 25.5455 24.0099 24.6667 23.5099 23.9091C23.0251 23.1364 22.366 22.5379 21.5327 22.1136C20.7145 21.6742 19.7827 21.4545 18.7372 21.4545C17.7221 21.4545 16.7902 21.6742 15.9418 22.1136C15.0933 22.5379 14.4115 23.1288 13.8963 23.8864C13.3963 24.6439 13.1312 25.5303 13.1009 26.5455V34C13.1009 35.1212 13.3357 36.1212 13.8054 37C14.2751 37.8788 14.9493 38.5682 15.8281 39.0682C16.7069 39.5682 17.7675 39.8182 19.0099 39.8182C19.8736 39.8182 20.6615 39.697 21.3736 39.4545C22.1009 39.2121 22.7221 38.8636 23.2372 38.4091C23.7524 37.9394 24.1312 37.3788 24.3736 36.7273H35.8281C35.4342 39.1515 34.5024 41.2576 33.0327 43.0455C31.563 44.8182 29.616 46.197 27.1918 47.1818C24.7827 48.1515 21.9645 48.6364 18.7372 48.6364ZM40.7656 48V1.45454H60.8565C64.3111 1.45454 67.3338 2.13636 69.9247 3.5C72.5156 4.86363 74.5308 6.7803 75.9702 9.25C77.4096 11.7197 78.1293 14.6061 78.1293 17.9091C78.1293 21.2424 77.3868 24.1288 75.902 26.5682C74.4323 29.0076 72.3641 30.8864 69.6974 32.2045C67.0459 33.5227 63.9474 34.1818 60.402 34.1818H48.402V24.3636H57.8565C59.3414 24.3636 60.6065 24.1061 61.652 23.5909C62.7126 23.0606 63.5232 22.3106 64.0838 21.3409C64.6596 20.3712 64.9474 19.2273 64.9474 17.9091C64.9474 16.5758 64.6596 15.4394 64.0838 14.5C63.5232 13.5455 62.7126 12.8182 61.652 12.3182C60.6065 11.803 59.3414 11.5455 57.8565 11.5455H53.402V48H40.7656ZM127.857 24.7273C127.857 29.9091 126.849 34.2803 124.834 37.8409C122.819 41.3864 120.099 44.0758 116.675 45.9091C113.25 47.7273 109.432 48.6364 105.22 48.6364C100.978 48.6364 97.1444 47.7197 93.7202 45.8864C90.3111 44.0379 87.599 41.3409 85.5838 37.7955C83.5838 34.2348 82.5838 29.8788 82.5838 24.7273C82.5838 19.5455 83.5838 15.1818 85.5838 11.6364C87.599 8.07576 90.3111 5.38636 93.7202 3.56818C97.1444 1.73485 100.978 0.81818 105.22 0.81818C109.432 0.81818 113.25 1.73485 116.675 3.56818C120.099 5.38636 122.819 8.07576 124.834 11.6364C126.849 15.1818 127.857 19.5455 127.857 24.7273ZM114.857 24.7273C114.857 21.9394 114.485 19.5909 113.743 17.6818C113.016 15.7576 111.932 14.303 110.493 13.3182C109.069 12.3182 107.311 11.8182 105.22 11.8182C103.129 11.8182 101.364 12.3182 99.9247 13.3182C98.5005 14.303 97.4171 15.7576 96.6747 17.6818C95.9474 19.5909 95.5838 21.9394 95.5838 24.7273C95.5838 27.5152 95.9474 29.8712 96.6747 31.7955C97.4171 33.7045 98.5005 35.1591 99.9247 36.1591C101.364 37.1439 103.129 37.6364 105.22 37.6364C107.311 37.6364 109.069 37.1439 110.493 36.1591C111.932 35.1591 113.016 33.7045 113.743 31.7955C114.485 29.8712 114.857 27.5152 114.857 24.7273ZM158.794 16C158.673 14.4848 158.105 13.303 157.089 12.4545C156.089 11.6061 154.567 11.1818 152.521 11.1818C151.218 11.1818 150.15 11.3409 149.317 11.6591C148.499 11.9621 147.893 12.3788 147.499 12.9091C147.105 13.4394 146.9 14.0455 146.885 14.7273C146.855 15.2879 146.953 15.7955 147.18 16.25C147.423 16.6894 147.802 17.0909 148.317 17.4545C148.832 17.803 149.491 18.1212 150.294 18.4091C151.097 18.697 152.052 18.9545 153.158 19.1818L156.976 20C159.552 20.5455 161.756 21.2652 163.589 22.1591C165.423 23.053 166.923 24.1061 168.089 25.3182C169.256 26.5152 170.112 27.8636 170.658 29.3636C171.218 30.8636 171.506 32.5 171.521 34.2727C171.506 37.3333 170.741 39.9242 169.226 42.0455C167.711 44.1667 165.544 45.7803 162.726 46.8864C159.923 47.9924 156.552 48.5455 152.612 48.5455C148.567 48.5455 145.036 47.947 142.021 46.75C139.021 45.553 136.688 43.7121 135.021 41.2273C133.37 38.7273 132.536 35.5303 132.521 31.6364H144.521C144.597 33.0606 144.953 34.2576 145.589 35.2273C146.226 36.197 147.12 36.9318 148.271 37.4318C149.438 37.9318 150.824 38.1818 152.43 38.1818C153.779 38.1818 154.908 38.0152 155.817 37.6818C156.726 37.3485 157.415 36.8864 157.885 36.2955C158.355 35.7045 158.597 35.0303 158.612 34.2727C158.597 33.5606 158.362 32.9394 157.908 32.4091C157.468 31.8636 156.741 31.3788 155.726 30.9545C154.711 30.5152 153.339 30.1061 151.612 29.7273L146.976 28.7273C142.855 27.8333 139.605 26.3409 137.226 24.25C134.862 22.1439 133.688 19.2727 133.703 15.6364C133.688 12.6818 134.476 10.0985 136.067 7.88636C137.673 5.65909 139.893 3.92424 142.726 2.68182C145.574 1.43939 148.839 0.81818 152.521 0.81818C156.279 0.81818 159.529 1.44697 162.271 2.70454C165.014 3.96212 167.127 5.73485 168.612 8.02273C170.112 10.2955 170.87 12.9545 170.885 16H158.794ZM71.294 77L73.4759 63.9091H76.0241L73.8423 77H71.294ZM75.2827 61.8636C74.8395 61.8636 74.4645 61.7159 74.1577 61.4205C73.8565 61.1193 73.7173 60.7614 73.7401 60.3466C73.7628 59.9261 73.9389 59.5682 74.2685 59.2727C74.598 58.9716 74.9815 58.821 75.419 58.821C75.8622 58.821 76.2344 58.9716 76.5355 59.2727C76.8366 59.5682 76.9787 59.9261 76.9616 60.3466C76.9389 60.7614 76.7628 61.1193 76.4332 61.4205C76.1094 61.7159 75.7259 61.8636 75.2827 61.8636ZM81.1058 69.2273L79.8274 77H77.2791L79.4609 63.9091H81.907L81.549 66.0398H81.7109C82.1257 65.3409 82.6911 64.7841 83.407 64.3693C84.1286 63.9489 84.9808 63.7386 85.9638 63.7386C86.8501 63.7386 87.5945 63.9261 88.1967 64.3011C88.8047 64.6705 89.2337 65.2216 89.4837 65.9545C89.7393 66.6875 89.7791 67.5937 89.603 68.6733L88.2053 77H85.657L86.995 68.9801C87.1484 68.0312 87.0234 67.2898 86.62 66.7557C86.2223 66.2159 85.5888 65.946 84.7195 65.946C84.1286 65.946 83.5803 66.0739 83.0746 66.3295C82.5746 66.5852 82.1513 66.9602 81.8047 67.4545C81.4638 67.9432 81.2308 68.5341 81.1058 69.2273ZM96.4979 77.2557C95.4354 77.2557 94.5348 76.9858 93.7962 76.446C93.0632 75.9006 92.5433 75.125 92.2365 74.1193C91.9354 73.108 91.9013 71.8949 92.1342 70.4801C92.3729 69.0653 92.8132 67.8551 93.4553 66.8494C94.0973 65.8437 94.8757 65.0739 95.7905 64.5398C96.7053 64.0057 97.6911 63.7386 98.7479 63.7386C99.5604 63.7386 100.191 63.875 100.64 64.1477C101.094 64.4148 101.43 64.7273 101.646 65.0852C101.862 65.4432 102.023 65.7585 102.131 66.0312H102.276L103.359 59.5455H105.907L103.009 77H100.521L100.87 74.9631H100.657C100.458 75.2415 100.183 75.5597 99.8303 75.9176C99.4837 76.2756 99.0405 76.5881 98.5007 76.8551C97.9609 77.1222 97.2933 77.2557 96.4979 77.2557ZM97.3587 75.0824C98.0916 75.0824 98.7479 74.8892 99.3274 74.5028C99.9126 74.1108 100.398 73.5682 100.785 72.875C101.177 72.1818 101.45 71.375 101.603 70.4545C101.756 69.5455 101.754 68.75 101.594 68.0682C101.435 67.3864 101.129 66.8551 100.674 66.4744C100.219 66.0937 99.62 65.9034 98.8757 65.9034C98.1087 65.9034 97.4411 66.1023 96.8729 66.5C96.3047 66.8977 95.8388 67.4403 95.4751 68.1278C95.1172 68.8153 94.8672 69.5909 94.7251 70.4545C94.5774 71.3295 94.5717 72.1165 94.7081 72.8153C94.8445 73.5142 95.1314 74.0682 95.5689 74.4773C96.0064 74.8807 96.603 75.0824 97.3587 75.0824ZM106.638 77L108.82 63.9091H111.368L109.186 77H106.638ZM110.626 61.8636C110.183 61.8636 109.808 61.7159 109.501 61.4205C109.2 61.1193 109.061 60.7614 109.084 60.3466C109.107 59.9261 109.283 59.5682 109.612 59.2727C109.942 58.9716 110.325 58.821 110.763 58.821C111.206 58.821 111.578 58.9716 111.879 59.2727C112.18 59.5682 112.322 59.9261 112.305 60.3466C112.283 60.7614 112.107 61.1193 111.777 61.4205C111.453 61.7159 111.07 61.8636 110.626 61.8636ZM125.995 63.9091L119.066 77H116.339L113.765 63.9091H116.398L118.035 73.983H118.171L123.157 63.9091H125.995ZM126.208 77L128.39 63.9091H130.938L128.756 77H126.208ZM130.197 61.8636C129.754 61.8636 129.379 61.7159 129.072 61.4205C128.771 61.1193 128.631 60.7614 128.654 60.3466C128.677 59.9261 128.853 59.5682 129.183 59.2727C129.512 58.9716 129.896 58.821 130.333 58.821C130.776 58.821 131.148 58.9716 131.45 59.2727C131.751 59.5682 131.893 59.9261 131.876 60.3466C131.853 60.7614 131.677 61.1193 131.347 61.4205C131.023 61.7159 130.64 61.8636 130.197 61.8636ZM137.068 77.2557C136.006 77.2557 135.105 76.9858 134.366 76.446C133.634 75.9006 133.114 75.125 132.807 74.1193C132.506 73.108 132.472 71.8949 132.705 70.4801C132.943 69.0653 133.384 67.8551 134.026 66.8494C134.668 65.8437 135.446 65.0739 136.361 64.5398C137.276 64.0057 138.261 63.7386 139.318 63.7386C140.131 63.7386 140.761 63.875 141.21 64.1477C141.665 64.4148 142 64.7273 142.216 65.0852C142.432 65.4432 142.594 65.7585 142.702 66.0312H142.847L143.929 59.5455H146.477L143.58 77H141.091L141.44 74.9631H141.227C141.028 75.2415 140.753 75.5597 140.401 75.9176C140.054 76.2756 139.611 76.5881 139.071 76.8551C138.531 77.1222 137.864 77.2557 137.068 77.2557ZM137.929 75.0824C138.662 75.0824 139.318 74.8892 139.898 74.5028C140.483 74.1108 140.969 73.5682 141.355 72.875C141.747 72.1818 142.02 71.375 142.173 70.4545C142.327 69.5455 142.324 68.75 142.165 68.0682C142.006 67.3864 141.699 66.8551 141.244 66.4744C140.79 66.0937 140.19 65.9034 139.446 65.9034C138.679 65.9034 138.011 66.1023 137.443 66.5C136.875 66.8977 136.409 67.4403 136.045 68.1278C135.688 68.8153 135.438 69.5909 135.295 70.4545C135.148 71.3295 135.142 72.1165 135.278 72.8153C135.415 73.5142 135.702 74.0682 136.139 74.4773C136.577 74.8807 137.173 75.0824 137.929 75.0824ZM156.404 71.571L157.683 63.9091H160.239L158.058 77H155.552L155.935 74.733H155.799C155.39 75.4318 154.81 76.0142 154.06 76.4801C153.316 76.9403 152.452 77.1705 151.469 77.1705C150.629 77.1705 149.915 76.9858 149.33 76.6165C148.751 76.2415 148.339 75.6875 148.094 74.9545C147.85 74.2216 147.816 73.3153 147.992 72.2358L149.39 63.9091H151.938L150.6 71.929C150.458 72.821 150.592 73.5312 151.001 74.0597C151.41 74.5881 152.006 74.8523 152.79 74.8523C153.268 74.8523 153.762 74.733 154.273 74.4943C154.785 74.2557 155.237 73.8949 155.629 73.4119C156.026 72.929 156.285 72.3153 156.404 71.571ZM165.257 77.2898C164.428 77.2898 163.703 77.1364 163.084 76.8295C162.464 76.517 162.007 76.0653 161.712 75.4744C161.416 74.8835 161.339 74.1591 161.482 73.3011C161.607 72.5625 161.851 71.9545 162.214 71.4773C162.584 71 163.033 70.6222 163.561 70.3438C164.089 70.0597 164.663 69.8466 165.283 69.7045C165.902 69.5625 166.527 69.4574 167.158 69.3892C167.953 69.2983 168.598 69.2216 169.092 69.1591C169.592 69.0966 169.967 69 170.217 68.8693C170.467 68.733 170.618 68.5114 170.669 68.2045V68.1449C170.788 67.4062 170.68 66.8324 170.345 66.4233C170.016 66.0085 169.442 65.8011 168.624 65.8011C167.771 65.8011 167.055 65.9886 166.476 66.3636C165.902 66.7386 165.479 67.1591 165.206 67.625L162.922 67.0795C163.331 66.2841 163.851 65.642 164.482 65.1534C165.118 64.6591 165.814 64.3011 166.57 64.0795C167.325 63.8523 168.098 63.7386 168.888 63.7386C169.411 63.7386 169.953 63.8011 170.516 63.9261C171.078 64.0455 171.589 64.267 172.05 64.5909C172.516 64.9148 172.862 65.3778 173.089 65.9801C173.317 66.5767 173.351 67.3523 173.192 68.3068L171.751 77H169.263L169.57 75.2102H169.467C169.251 75.5398 168.95 75.8636 168.564 76.1818C168.183 76.5 167.717 76.7642 167.166 76.9744C166.615 77.1847 165.979 77.2898 165.257 77.2898ZM166.126 75.2443C166.837 75.2443 167.464 75.1051 168.01 74.8267C168.561 74.5483 169.007 74.1847 169.348 73.7358C169.689 73.2812 169.902 72.7955 169.987 72.2784L170.268 70.5909C170.161 70.6818 169.97 70.7642 169.697 70.8381C169.43 70.9119 169.129 70.9773 168.794 71.0341C168.459 71.0909 168.129 71.1392 167.805 71.179C167.487 71.2187 167.223 71.2557 167.013 71.2898C166.513 71.3523 166.044 71.4574 165.607 71.6051C165.175 71.7528 164.814 71.9659 164.524 72.2443C164.234 72.517 164.053 72.8807 163.979 73.3352C163.876 73.9659 164.027 74.4432 164.43 74.767C164.839 75.0852 165.405 75.2443 166.126 75.2443ZM180.592 59.5455L177.694 77H175.146L178.043 59.5455H180.592Z" fill="#2E343D"/>
</svg>
