<svg width="160" height="85" viewBox="0 0 160 85" fill="none" xmlns="http://www.w3.org/2000/svg">
<path d="M0.509943 50V15.0909H13.0554V50H0.509943ZM6.78267 11.4545C5.0857 11.4545 3.63116 10.8939 2.41903 9.77273C1.20691 8.65151 0.600852 7.30303 0.600852 5.72727C0.600852 4.15151 1.20691 2.80303 2.41903 1.68182C3.63116 0.560605 5.0857 0 6.78267 0C8.49479 0 9.94934 0.560605 11.1463 1.68182C12.3584 2.80303 12.9645 4.15151 12.9645 5.72727C12.9645 7.30303 12.3584 8.65151 11.1463 9.77273C9.94934 10.8939 8.49479 11.4545 6.78267 11.4545ZM19.2656 50V3.45454H39.3565C42.8111 3.45454 45.8338 4.13636 48.4247 5.5C51.0156 6.86363 53.0308 8.7803 54.4702 11.25C55.9096 13.7197 56.6293 16.6061 56.6293 19.9091C56.6293 23.2424 55.8868 26.1288 54.402 28.5682C52.9323 31.0076 50.8641 32.8864 48.1974 34.2045C45.5459 35.5227 42.4474 36.1818 38.902 36.1818H26.902V26.3636H36.3565C37.8414 26.3636 39.1065 26.1061 40.152 25.5909C41.2126 25.0606 42.0232 24.3106 42.5838 23.3409C43.1596 22.3712 43.4474 21.2273 43.4474 19.9091C43.4474 18.5758 43.1596 17.4394 42.5838 16.5C42.0232 15.5455 41.2126 14.8182 40.152 14.3182C39.1065 13.803 37.8414 13.5455 36.3565 13.5455H31.902V50H19.2656ZM106.357 26.7273C106.357 31.9091 105.349 36.2803 103.334 39.8409C101.319 43.3864 98.599 46.0758 95.1747 47.9091C91.7505 49.7273 87.9323 50.6364 83.7202 50.6364C79.4777 50.6364 75.6444 49.7197 72.2202 47.8864C68.8111 46.0379 66.099 43.3409 64.0838 39.7955C62.0838 36.2348 61.0838 31.8788 61.0838 26.7273C61.0838 21.5455 62.0838 17.1818 64.0838 13.6364C66.099 10.0758 68.8111 7.38636 72.2202 5.56818C75.6444 3.73485 79.4777 2.81818 83.7202 2.81818C87.9323 2.81818 91.7505 3.73485 95.1747 5.56818C98.599 7.38636 101.319 10.0758 103.334 13.6364C105.349 17.1818 106.357 21.5455 106.357 26.7273ZM93.3565 26.7273C93.3565 23.9394 92.9853 21.5909 92.2429 19.6818C91.5156 17.7576 90.4323 16.303 88.9929 15.3182C87.5687 14.3182 85.8111 13.8182 83.7202 13.8182C81.6293 13.8182 79.8641 14.3182 78.4247 15.3182C77.0005 16.303 75.9171 17.7576 75.1747 19.6818C74.4474 21.5909 74.0838 23.9394 74.0838 26.7273C74.0838 29.5152 74.4474 31.8712 75.1747 33.7955C75.9171 35.7045 77.0005 37.1591 78.4247 38.1591C79.8641 39.1439 81.6293 39.6364 83.7202 39.6364C85.8111 39.6364 87.5687 39.1439 88.9929 38.1591C90.4323 37.1591 91.5156 35.7045 92.2429 33.7955C92.9853 31.8712 93.3565 29.5152 93.3565 26.7273ZM137.294 18C137.173 16.4848 136.605 15.303 135.589 14.4545C134.589 13.6061 133.067 13.1818 131.021 13.1818C129.718 13.1818 128.65 13.3409 127.817 13.6591C126.999 13.9621 126.393 14.3788 125.999 14.9091C125.605 15.4394 125.4 16.0455 125.385 16.7273C125.355 17.2879 125.453 17.7955 125.68 18.25C125.923 18.6894 126.302 19.0909 126.817 19.4545C127.332 19.803 127.991 20.1212 128.794 20.4091C129.597 20.697 130.552 20.9545 131.658 21.1818L135.476 22C138.052 22.5455 140.256 23.2652 142.089 24.1591C143.923 25.053 145.423 26.1061 146.589 27.3182C147.756 28.5152 148.612 29.8636 149.158 31.3636C149.718 32.8636 150.006 34.5 150.021 36.2727C150.006 39.3333 149.241 41.9242 147.726 44.0455C146.211 46.1667 144.044 47.7803 141.226 48.8864C138.423 49.9924 135.052 50.5455 131.112 50.5455C127.067 50.5455 123.536 49.947 120.521 48.75C117.521 47.553 115.188 45.7121 113.521 43.2273C111.87 40.7273 111.036 37.5303 111.021 33.6364H123.021C123.097 35.0606 123.453 36.2576 124.089 37.2273C124.726 38.197 125.62 38.9318 126.771 39.4318C127.938 39.9318 129.324 40.1818 130.93 40.1818C132.279 40.1818 133.408 40.0152 134.317 39.6818C135.226 39.3485 135.915 38.8864 136.385 38.2955C136.855 37.7045 137.097 37.0303 137.112 36.2727C137.097 35.5606 136.862 34.9394 136.408 34.4091C135.968 33.8636 135.241 33.3788 134.226 32.9545C133.211 32.5152 131.839 32.1061 130.112 31.7273L125.476 30.7273C121.355 29.8333 118.105 28.3409 115.726 26.25C113.362 24.1439 112.188 21.2727 112.203 17.6364C112.188 14.6818 112.976 12.0985 114.567 9.88636C116.173 7.65909 118.393 5.92424 121.226 4.68182C124.074 3.43939 127.339 2.81818 131.021 2.81818C134.779 2.81818 138.029 3.44697 140.771 4.70454C143.514 5.96212 145.627 7.73485 147.112 10.0227C148.612 12.2955 149.37 14.9545 149.385 18H137.294ZM92.8977 79H87.1705L90.0682 61.5455H95.821C97.5369 61.5455 98.9545 61.9034 100.074 62.6193C101.193 63.3295 101.977 64.3466 102.426 65.6705C102.875 66.9886 102.946 68.5653 102.639 70.4006C102.344 72.196 101.764 73.7358 100.901 75.0199C100.043 76.2983 98.9375 77.2812 97.5852 77.9688C96.233 78.6562 94.6705 79 92.8977 79ZM90.196 76.6989H93.0085C94.3381 76.6989 95.4886 76.4403 96.4602 75.9233C97.4375 75.4062 98.2301 74.6562 98.8381 73.6733C99.446 72.6903 99.8665 71.4943 100.099 70.0852C100.327 68.7443 100.307 67.6108 100.04 66.6847C99.7727 65.7528 99.2557 65.0483 98.4886 64.571C97.7216 64.0881 96.7017 63.8466 95.429 63.8466H92.3182L90.196 76.6989ZM104.286 79L106.468 65.9091H109.016L106.835 79H104.286ZM108.275 63.8636C107.832 63.8636 107.457 63.7159 107.15 63.4205C106.849 63.1193 106.71 62.7614 106.732 62.3466C106.755 61.9261 106.931 61.5682 107.261 61.2727C107.59 60.9716 107.974 60.821 108.411 60.821C108.854 60.821 109.227 60.9716 109.528 61.2727C109.829 61.5682 109.971 61.9261 109.954 62.3466C109.931 62.7614 109.755 63.1193 109.425 63.4205C109.102 63.7159 108.718 63.8636 108.275 63.8636ZM114.933 84.1818C113.888 84.1818 113.013 84.0455 112.308 83.7727C111.609 83.5 111.058 83.1392 110.655 82.6903C110.257 82.2415 109.982 81.75 109.828 81.2159L112.18 80.3125C112.294 80.5625 112.453 80.8267 112.658 81.1051C112.862 81.3892 113.166 81.6307 113.57 81.8295C113.979 82.0284 114.538 82.1278 115.249 82.1278C116.214 82.1278 117.058 81.892 117.78 81.4205C118.501 80.9545 118.947 80.2102 119.118 79.1875L119.518 76.6136H119.357C119.163 76.892 118.896 77.2017 118.555 77.5426C118.214 77.8835 117.774 78.179 117.234 78.429C116.695 78.679 116.024 78.804 115.223 78.804C114.189 78.804 113.297 78.5625 112.547 78.0795C111.803 77.5909 111.268 76.8722 110.945 75.9233C110.621 74.9687 110.575 73.7955 110.808 72.4034C111.036 71.0114 111.467 69.8182 112.104 68.8239C112.746 67.8295 113.524 67.0682 114.439 66.5398C115.359 66.0057 116.345 65.7386 117.396 65.7386C118.209 65.7386 118.842 65.875 119.297 66.1477C119.757 66.4148 120.098 66.7273 120.32 67.0852C120.541 67.4432 120.703 67.7585 120.805 68.0312H120.993L121.342 65.9091H123.839L121.624 79.2898C121.442 80.4148 121.03 81.3381 120.388 82.0597C119.751 82.7813 118.959 83.3153 118.01 83.6619C117.067 84.0085 116.041 84.1818 114.933 84.1818ZM116.092 76.6903C116.82 76.6903 117.467 76.5199 118.036 76.179C118.609 75.8324 119.087 75.3381 119.467 74.696C119.848 74.0483 120.112 73.2727 120.26 72.3693C120.408 71.4886 120.399 70.7131 120.234 70.0426C120.075 69.3722 119.766 68.8494 119.305 68.4744C118.851 68.0937 118.257 67.9034 117.524 67.9034C116.751 67.9034 116.081 68.1023 115.513 68.5C114.945 68.892 114.482 69.4261 114.124 70.1023C113.771 70.7784 113.524 71.5341 113.382 72.3693C113.246 73.2273 113.249 73.9801 113.391 74.6278C113.538 75.2756 113.834 75.7812 114.277 76.1449C114.72 76.5085 115.325 76.6903 116.092 76.6903ZM125.075 79L127.257 65.9091H129.805L127.624 79H125.075ZM129.064 63.8636C128.621 63.8636 128.246 63.7159 127.939 63.4205C127.638 63.1193 127.499 62.7614 127.521 62.3466C127.544 61.9261 127.72 61.5682 128.05 61.2727C128.379 60.9716 128.763 60.821 129.2 60.821C129.643 60.821 130.016 60.9716 130.317 61.2727C130.618 61.5682 130.76 61.9261 130.743 62.3466C130.72 62.7614 130.544 63.1193 130.214 63.4205C129.891 63.7159 129.507 63.8636 129.064 63.8636ZM139.344 65.9091L139.012 67.9545H131.862L132.194 65.9091H139.344ZM134.623 62.7727H137.171L135.109 75.1562C135.029 75.6506 135.043 76.0227 135.151 76.2727C135.259 76.517 135.424 76.6847 135.646 76.7756C135.873 76.8608 136.126 76.9034 136.404 76.9034C136.609 76.9034 136.788 76.8892 136.941 76.8608C137.094 76.8324 137.217 76.8097 137.308 76.7926L137.444 78.8977C137.273 78.9545 137.043 79.0114 136.754 79.0682C136.469 79.1307 136.123 79.1648 135.714 79.1705C135.043 79.1818 134.438 79.0625 133.898 78.8125C133.359 78.5568 132.955 78.1705 132.688 77.6534C132.421 77.1307 132.356 76.4744 132.492 75.6847L134.623 62.7727ZM143.757 79.2898C142.928 79.2898 142.203 79.1364 141.584 78.8295C140.964 78.517 140.507 78.0653 140.212 77.4744C139.916 76.8835 139.839 76.1591 139.982 75.3011C140.107 74.5625 140.351 73.9545 140.714 73.4773C141.084 73 141.533 72.6222 142.061 72.3438C142.589 72.0597 143.163 71.8466 143.783 71.7045C144.402 71.5625 145.027 71.4574 145.658 71.3892C146.453 71.2983 147.098 71.2216 147.592 71.1591C148.092 71.0966 148.467 71 148.717 70.8693C148.967 70.733 149.118 70.5114 149.169 70.2045V70.1449C149.288 69.4062 149.18 68.8324 148.845 68.4233C148.516 68.0085 147.942 67.8011 147.124 67.8011C146.271 67.8011 145.555 67.9886 144.976 68.3636C144.402 68.7386 143.979 69.1591 143.706 69.625L141.422 69.0795C141.831 68.2841 142.351 67.642 142.982 67.1534C143.618 66.6591 144.314 66.3011 145.07 66.0795C145.825 65.8523 146.598 65.7386 147.388 65.7386C147.911 65.7386 148.453 65.8011 149.016 65.9261C149.578 66.0455 150.089 66.267 150.55 66.5909C151.016 66.9148 151.362 67.3778 151.589 67.9801C151.817 68.5767 151.851 69.3523 151.692 70.3068L150.251 79H147.763L148.07 77.2102H147.967C147.751 77.5398 147.45 77.8636 147.064 78.1818C146.683 78.5 146.217 78.7642 145.666 78.9744C145.115 79.1847 144.479 79.2898 143.757 79.2898ZM144.626 77.2443C145.337 77.2443 145.964 77.1051 146.51 76.8267C147.061 76.5483 147.507 76.1847 147.848 75.7358C148.189 75.2812 148.402 74.7955 148.487 74.2784L148.768 72.5909C148.661 72.6818 148.47 72.7642 148.197 72.8381C147.93 72.9119 147.629 72.9773 147.294 73.0341C146.959 73.0909 146.629 73.1392 146.305 73.179C145.987 73.2187 145.723 73.2557 145.513 73.2898C145.013 73.3523 144.544 73.4574 144.107 73.6051C143.675 73.7528 143.314 73.9659 143.024 74.2443C142.734 74.517 142.553 74.8807 142.479 75.3352C142.376 75.9659 142.527 76.4432 142.93 76.767C143.339 77.0852 143.905 77.2443 144.626 77.2443ZM159.092 61.5455L156.194 79H153.646L156.543 61.5455H159.092Z" fill="#2E343D"/>
</svg>
