<svg width="722" height="479" viewBox="0 0 722 479" fill="none" xmlns="http://www.w3.org/2000/svg">
<path d="M-164.739 78.7922C-113.739 233.792 85.7609 223.312 146.761 275.792C207.761 328.273 102.673 392.196 187.761 435.292C264.122 473.969 344.261 458.292 446.261 485.792C548.261 513.292 721.761 622.792 721.761 622.792L-131.239 636.292L-173.18 53.072C-210.696 -61.6189 -173.739 45.2921 -173.739 45.2921L-173.18 53.072C-170.702 60.6471 -167.899 69.189 -164.739 78.7922Z" fill="#F05822"/>
<path d="M54.5 277.5C0.5 223.5 -80 201.5 -99 180.5C-118 159.5 -145 110 -145 110L-109 634L567.5 646C567.5 646 443.5 515 341.5 487.5C239.5 460 171 461 128.5 431C86 401 108.5 331.5 54.5 277.5Z" fill="#006784"/>
</svg>
