<svg width="272" height="146" viewBox="0 0 272 146" fill="none" xmlns="http://www.w3.org/2000/svg">
<path d="M376.932 -65.56C355.305 0.170113 270.704 -4.27435 244.836 17.9808C218.968 40.2359 263.532 67.3435 227.449 85.6192C195.067 102.021 161.083 95.3727 117.828 107.034C74.5738 118.696 0.998535 165.131 0.998535 165.131L362.726 170.856L380.512 -76.467C396.421 -125.103 380.749 -79.7662 380.749 -79.7662L380.512 -76.467C379.461 -73.2547 378.272 -69.6324 376.932 -65.56Z" fill="#F05822"/>
<path d="M283.962 18.705C306.861 -4.19454 340.998 -13.524 349.056 -22.4293C357.113 -31.3347 368.562 -52.3259 368.562 -52.3259L353.296 169.884L66.4161 174.973C66.4161 174.973 119 119.42 162.255 107.759C205.509 96.0969 234.558 96.5209 252.581 83.799C270.603 71.077 261.062 41.6045 283.962 18.705Z" fill="#006784"/>
</svg>
