<svg width="568" height="152" viewBox="0 0 568 152" fill="none" xmlns="http://www.w3.org/2000/svg">
<path d="M886.501 -326.208C835.501 -171.208 636.001 -181.688 575.001 -129.208C514.001 -76.7275 619.088 -12.8044 534.001 30.2922C457.64 68.9688 377.501 53.2922 275.501 80.7922C173.501 108.292 0.000854492 217.792 0.000854492 217.792L853.001 231.292L894.941 -351.928C932.458 -466.619 895.501 -359.708 895.501 -359.708L894.941 -351.928C892.464 -344.353 889.661 -335.811 886.501 -326.208Z" fill="#F05822"/>
<path d="M667.262 -127.5C721.262 -181.5 801.762 -203.5 820.762 -224.5C839.762 -245.5 866.762 -295 866.762 -295L830.762 229L154.262 241C154.262 241 278.262 110 380.262 82.5C482.262 55 550.762 56 593.262 26C635.762 -4 613.262 -73.5 667.262 -127.5Z" fill="#006784"/>
</svg>
