<svg width="621" height="102" viewBox="0 0 621 102" fill="none" xmlns="http://www.w3.org/2000/svg">
<path d="M148.653 260.105C130.525 205.798 121.882 99.7072 232.329 109.801C370.388 122.418 374.093 182.663 493.077 90.5789C612.061 -1.50467 616.664 3.74535 680.489 38.4718" stroke="white" stroke-opacity="0.5" stroke-width="2"/>
<path d="M116.92 236.293C98.7928 181.986 90.1494 75.8947 200.597 85.9883C338.656 98.6054 342.361 158.85 461.345 66.7664C580.329 -25.3172 584.932 -20.0671 648.757 14.6593" stroke="white" stroke-opacity="0.5" stroke-width="2"/>
<path d="M85.1861 212.478C67.0585 158.171 58.415 52.0802 168.862 62.1739C306.921 74.791 310.626 135.036 429.61 42.952C548.594 -49.1316 553.197 -43.8816 617.022 -9.15515" stroke="white" stroke-opacity="0.5" stroke-width="2"/>
<path d="M53.4517 188.666C35.3241 134.359 26.6807 28.2677 137.128 38.3614C275.187 50.9785 278.892 111.223 397.876 19.1395C516.86 -72.9441 521.463 -67.6941 585.288 -32.9677" stroke="white" stroke-opacity="0.5" stroke-width="2"/>
<path d="M109.012 219.105C90.8846 164.798 82.2412 58.7072 192.688 68.8008C330.747 81.4179 334.452 141.663 453.436 49.5789C572.42 -42.5047 577.024 -37.2546 640.848 -2.5282" stroke="white" stroke-opacity="0.5" stroke-width="2"/>
<path d="M77.2788 195.293C59.1512 140.986 50.5078 34.8947 160.955 44.9883C299.014 57.6054 302.719 117.85 421.703 25.7664C540.687 -66.3172 545.29 -61.0671 609.115 -26.3407" stroke="white" stroke-opacity="0.5" stroke-width="2"/>
<path d="M45.5454 171.478C27.4178 117.171 18.7744 11.0802 129.222 21.1739C267.281 33.791 270.986 94.0356 389.97 1.95196C508.954 -90.1316 513.557 -84.8816 577.382 -50.1552" stroke="white" stroke-opacity="0.5" stroke-width="2"/>
<path d="M23.8111 158.664C5.68346 104.357 -2.95997 -1.73422 107.487 8.35943C245.546 20.9765 249.251 81.2211 368.235 -10.8625C487.219 -102.946 491.822 -97.6961 555.647 -62.9696" stroke="white" stroke-opacity="0.5" stroke-width="2"/>
</svg>
