<svg width="621" height="102" viewBox="0 0 621 102" fill="none" xmlns="http://www.w3.org/2000/svg">
<path d="M109.012 219.104C90.8846 164.797 82.2412 58.7062 192.688 68.7999C330.747 81.4169 334.452 141.662 453.436 49.5779C572.42 -42.5056 577.024 -37.2556 640.848 -2.52917" stroke="white" stroke-opacity="0.5" stroke-width="2"/>
<path d="M77.2798 195.291C59.1522 140.984 50.5088 34.8927 160.956 44.9864C299.015 57.6035 302.72 117.848 421.704 25.7645C540.688 -66.3191 545.291 -61.0691 609.116 -26.3427" stroke="white" stroke-opacity="0.5" stroke-width="2"/>
<path d="M45.5454 171.477C27.4178 117.17 18.7744 11.0793 129.222 21.1729C267.281 33.79 270.986 94.0346 389.97 1.95099C508.954 -90.1326 513.557 -84.8826 577.382 -50.1561" stroke="white" stroke-opacity="0.5" stroke-width="2"/>
<path d="M23.8111 158.664C5.68346 104.357 -2.95997 -1.73422 107.487 8.35943C245.546 20.9765 249.251 81.2211 368.235 -10.8625C487.219 -102.946 491.822 -97.6961 555.647 -62.9696" stroke="white" stroke-opacity="0.5" stroke-width="2"/>
</svg>
