<svg width="375" height="102" viewBox="0 0 375 102" fill="none" xmlns="http://www.w3.org/2000/svg">
    <path d="M88.3029 290.104C76.0714 235.797 70.2392 129.706 144.763 139.8C237.918 152.417 240.418 212.662 320.702 120.578C400.986 28.4943 404.092 33.7443 447.157 68.4708" stroke="#E5E9F5" stroke-opacity="0.5" stroke-width="2"/>
    <path d="M66.8913 266.291C54.6597 211.984 48.8276 105.893 123.351 115.986C216.506 128.603 219.006 188.848 299.29 96.7644C379.574 4.68084 382.68 9.93087 425.746 44.6573" stroke="#E5E9F5" stroke-opacity="0.5" stroke-width="2"/>
    <path d="M45.4787 242.476C33.2471 188.169 27.415 82.0783 101.939 92.1719C195.094 104.789 197.594 165.034 277.878 72.95C358.162 -19.1336 361.268 -13.8836 404.333 20.8429" stroke="#E5E9F5" stroke-opacity="0.5" stroke-width="2"/>
    <path d="M24.0666 218.664C11.835 164.357 6.0029 58.2658 80.5267 68.3594C173.681 80.9765 176.181 141.221 256.465 49.1375C336.75 -42.9461 339.855 -37.6961 382.921 -2.96963" stroke="#E5E9F5" stroke-opacity="0.5" stroke-width="2"/>
    <path d="M68.3029 290.104C56.0714 235.797 50.2392 129.706 124.763 139.8C217.918 152.417 220.418 212.662 300.702 120.578C380.986 28.4943 384.092 33.7443 427.157 68.4708" stroke="#E5E9F5" stroke-opacity="0.5" stroke-width="2"/>
    <path d="M46.8913 266.291C34.6597 211.984 28.8276 105.893 103.351 115.986C196.506 128.603 199.006 188.848 279.29 96.7644C359.574 4.68084 362.68 9.93087 405.746 44.6573" stroke="#E5E9F5" stroke-opacity="0.5" stroke-width="2"/>
    <path d="M25.4787 242.476C13.2471 188.169 7.41501 82.0783 81.9388 92.1719C175.094 104.789 177.594 165.034 257.878 72.95C338.162 -19.1336 341.268 -13.8836 384.333 20.8429" stroke="#E5E9F5" stroke-opacity="0.5" stroke-width="2"/>
    <path d="M4.06656 218.664C-8.16498 164.357 -13.9971 58.2658 60.5267 68.3594C153.681 80.9765 156.181 141.221 236.465 49.1375C316.75 -42.9461 319.855 -37.6961 362.921 -2.96963" stroke="#E5E9F5" stroke-opacity="0.5" stroke-width="2"/>
</svg>
