<svg width="244" height="371" viewBox="0 0 244 371" fill="none" xmlns="http://www.w3.org/2000/svg">
<path d="M-1.38168 349.214C-13.6132 294.907 -19.4453 188.816 55.0785 198.909C148.233 211.526 150.733 271.771 231.017 179.687C311.301 87.6037 314.407 92.8537 357.473 127.58" stroke="white" stroke-opacity="0.5" stroke-width="2"/>
<path d="M-22.7938 325.4C-35.0253 271.093 -40.8574 165.002 33.6663 175.096C126.821 187.713 129.321 247.957 209.605 155.874C289.889 63.7902 292.995 69.0402 336.061 103.767" stroke="white" stroke-opacity="0.5" stroke-width="2"/>
<path d="M-44.2059 301.587C-56.4374 247.28 -62.2696 141.189 12.2542 151.282C105.409 163.899 107.909 224.144 188.193 132.06C268.477 39.9767 271.583 45.2268 314.649 79.9532" stroke="white" stroke-opacity="0.5" stroke-width="2"/>
<path d="M-65.618 277.773C-77.8495 223.466 -83.6817 117.375 -9.15787 127.469C83.9969 140.086 86.4968 200.33 166.781 108.247C247.065 16.1633 250.171 21.4133 293.236 56.1397" stroke="white" stroke-opacity="0.5" stroke-width="2"/>
<path d="M-30.5047 336.104C-42.7363 281.797 -48.5684 175.706 25.9554 185.8C119.11 198.417 121.61 258.662 201.894 166.578C282.178 74.4943 285.284 79.7443 328.35 114.471" stroke="white" stroke-opacity="0.5" stroke-width="2"/>
<path d="M-51.9168 312.291C-64.1484 257.984 -69.9805 151.893 4.5433 161.986C97.6981 174.603 100.198 234.848 180.482 142.764C260.766 50.6808 263.872 55.9309 306.938 90.6573" stroke="white" stroke-opacity="0.5" stroke-width="2"/>
<path d="M-73.3289 288.477C-85.5605 234.17 -91.3926 128.079 -16.8688 138.173C76.2859 150.79 78.7859 211.035 159.07 118.951C239.354 26.8674 242.46 32.1174 285.525 66.8438" stroke="white" stroke-opacity="0.5" stroke-width="2"/>
<path d="M-94.7411 264.664C-106.973 210.357 -112.805 104.266 -38.2809 114.359C54.8738 126.976 57.3738 187.221 137.658 95.1375C217.942 3.05389 221.048 8.30392 264.113 43.0304" stroke="white" stroke-opacity="0.5" stroke-width="2"/>
</svg>
