<svg width="591" height="501" viewBox="0 0 591 501" fill="none" xmlns="http://www.w3.org/2000/svg">
<path d="M-102.794 321.305C-39.9326 256.213 98.8582 153.044 151.128 261.097C216.465 396.163 136.933 453.67 332.945 477.47C528.956 501.269 524.582 510.116 515.582 598.545" stroke="#D7D7D7" stroke-width="2"/>
<path d="M-99.845 291.305C-36.9834 226.213 101.807 123.044 154.077 231.097C219.415 366.163 139.883 423.67 335.894 447.47C531.905 471.269 527.531 480.116 518.531 568.545" stroke="#D7D7D7" stroke-width="2"/>
<path d="M-96.8948 261.305C-34.0332 196.213 104.758 93.044 157.028 201.097C222.365 336.163 142.833 393.67 338.844 417.47C534.856 441.269 530.481 450.116 521.481 538.545" stroke="#D7D7D7" stroke-width="2"/>
<path d="M-93.9456 231.647C-31.0839 166.556 107.707 63.3868 159.977 171.44C225.314 306.506 145.782 364.013 341.793 387.812C537.805 411.612 533.43 420.459 524.431 508.888" stroke="#D7D7D7" stroke-width="2"/>
</svg>
