<svg width="237" height="47" viewBox="0 0 237 47" fill="none" xmlns="http://www.w3.org/2000/svg">
<path d="M33.08 38.064H16.312L12.216 46H0.76L24.952 1.072H37.624L45.944 46H34.36L33.08 38.064ZM31.8 29.744L29.176 13.104L20.6 29.744H31.8ZM47.9475 23.472C48.7155 19.0347 50.3582 15.088 52.8755 11.632C55.4355 8.13333 58.5928 5.424 62.3475 3.504C66.1022 1.54133 70.1555 0.559998 74.5075 0.559998C79.8408 0.559998 84.1502 1.968 87.4355 4.784C90.7635 7.6 92.6408 11.44 93.0675 16.304H81.0355C80.4808 14.4693 79.4568 13.0827 77.9635 12.144C76.5128 11.1627 74.7208 10.672 72.5875 10.672C69.2168 10.672 66.2942 11.8453 63.8195 14.192C61.3448 16.496 59.7662 19.5893 59.0835 23.472C58.8702 24.6667 58.7635 25.712 58.7635 26.608C58.7635 29.5947 59.5955 31.9627 61.2595 33.712C62.9235 35.4613 65.2062 36.336 68.1075 36.336C70.1982 36.336 72.1395 35.8453 73.9315 34.864C75.7662 33.8827 77.3022 32.4747 78.5395 30.64H90.5715C88.4382 35.504 85.2168 39.344 80.9075 42.16C76.5982 44.9333 71.7768 46.32 66.4435 46.32C62.6035 46.32 59.2542 45.5733 56.3955 44.08C53.5368 42.5867 51.3395 40.4747 49.8035 37.744C48.2675 35.0133 47.4995 31.8347 47.4995 28.208C47.4995 26.5867 47.6488 25.008 47.9475 23.472ZM129.658 1.072L128.186 9.712H116.218L109.818 46H98.8735L105.274 9.712H93.3695L94.9055 1.072H129.658ZM140.974 1.072L133.038 46H122.094L130.03 1.072H140.974ZM157.225 46.448C153.428 46.448 150.078 45.6587 147.177 44.08C144.318 42.5013 142.1 40.2827 140.521 37.424C138.942 34.5653 138.153 31.28 138.153 27.568C138.153 22.32 139.284 17.648 141.545 13.552C143.806 9.41333 146.942 6.192 150.953 3.888C155.006 1.584 159.593 0.431999 164.713 0.431999C168.553 0.431999 171.924 1.22133 174.825 2.8C177.726 4.336 179.966 6.53333 181.545 9.392C183.124 12.208 183.913 15.4507 183.913 19.12C183.913 24.368 182.782 29.0827 180.521 33.264C178.26 37.4027 175.102 40.6453 171.049 42.992C166.996 45.296 162.388 46.448 157.225 46.448ZM158.889 36.336C161.705 36.336 164.18 35.6107 166.313 34.16C168.446 32.7093 170.089 30.768 171.241 28.336C172.436 25.8613 173.033 23.1947 173.033 20.336C173.033 17.264 172.18 14.8533 170.473 13.104C168.766 11.3547 166.377 10.48 163.305 10.48C160.489 10.48 157.993 11.2053 155.817 12.656C153.684 14.1067 152.02 16.048 150.825 18.48C149.673 20.8693 149.097 23.5147 149.097 26.416C149.097 29.488 149.95 31.92 151.657 33.712C153.364 35.4613 155.774 36.336 158.889 36.336ZM221.233 46H210.289L196.913 18.288L191.985 46H181.041L188.977 1.072H199.921L213.297 28.912L218.225 1.072H229.169L221.233 46ZM229.102 46.512C227.396 46.512 226.03 46.064 225.006 45.168C224.025 44.2293 223.534 43.056 223.534 41.648C223.534 39.6853 224.26 38.0213 225.71 36.656C227.204 35.2907 229.038 34.608 231.214 34.608C232.878 34.608 234.201 35.0773 235.182 36.016C236.164 36.912 236.654 38.0853 236.654 39.536C236.654 41.456 235.908 43.0987 234.414 44.464C232.964 45.8293 231.193 46.512 229.102 46.512Z" fill="#404040"/>
</svg>
