<?xml version="1.0" encoding="utf-8"?>
<svg viewBox="-0.946 -0.758 28.892 27.849" xmlns="http://www.w3.org/2000/svg">
  <path d="M 3.124 1.585 L 24.009 1.585 C 24.702 1.585 25.365 1.86 25.856 2.35 C 26.346 2.839 26.62 3.504 26.62 4.196 L 26.62 12.028 C 26.62 15.489 25.245 18.81 22.796 21.258 C 20.349 23.707 17.029 25.081 13.566 25.081 C 11.852 25.081 10.156 24.743 8.572 24.088 C 6.987 23.431 5.549 22.47 4.336 21.258 C 1.889 18.81 0.513 15.489 0.513 12.028 L 0.513 4.196 C 0.513 3.504 0.788 2.839 1.278 2.35 C 1.767 1.86 2.432 1.585 3.124 1.585 Z" stroke-width="1.41176" stroke-linecap="round" stroke-linejoin="round" style="fill: none; stroke: rgb(255, 255, 255);"/>
  <path d="M 8.345 10.722 L 13.566 15.944 L 18.788 10.722" stroke-width="1.41176" stroke-linecap="round" stroke-linejoin="round" style="fill: none; stroke: rgb(255, 255, 255);"/>
</svg>