<svg width="24" height="24" viewBox="0 0 24 24" fill="none" xmlns="http://www.w3.org/2000/svg">
<path d="M0 2.82353C0 1.26414 1.26414 0 2.82353 0H21.1765C22.7359 0 24 1.26414 24 2.82353V21.1765C24 22.7359 22.7359 24 21.1765 24H2.82353C1.26414 24 0 22.7359 0 21.1765V2.82353Z" fill="#F7931D"/>
<path d="M12 22C17.5228 22 22 17.5228 22 12C22 6.47715 17.5228 2 12 2C6.47715 2 2 6.47715 2 12C2 17.5228 6.47715 22 12 22Z" stroke="white" stroke-width="1.41176" stroke-linecap="round" stroke-linejoin="round"/>
<path d="M8 12H16" stroke="white" stroke-width="1.41176" stroke-linecap="round" stroke-linejoin="round"/>
</svg>
